<?xml version="1.0" encoding="UTF-8" standalone="no"?>
<svg
   version="1.1"
   id="Layer_1"
   x="0px"
   y="0px"
   viewBox="0 0 30 30"
   style="enable-background:new 0 0 30 30;"
   xml:space="preserve"
   fill="#ffffff"
   sodipodi:docname="humidity.svg"
   inkscape:version="1.3.2 (091e20e, 2023-11-25, custom)"
   xmlns:inkscape="http://www.inkscape.org/namespaces/inkscape"
   xmlns:sodipodi="http://sodipodi.sourceforge.net/DTD/sodipodi-0.dtd"
   xmlns="http://www.w3.org/2000/svg"
   xmlns:svg="http://www.w3.org/2000/svg"><defs
   id="defs1" /><sodipodi:namedview
   id="namedview1"
   pagecolor="#ffffff"
   bordercolor="#000000"
   borderopacity="0.25"
   inkscape:showpageshadow="2"
   inkscape:pageopacity="0.0"
   inkscape:pagecheckerboard="0"
   inkscape:deskcolor="#d1d1d1"
   inkscape:lockguides="true"
   showgrid="true"
   showguides="true"
   inkscape:zoom="42.874241"
   inkscape:cx="12.326749"
   inkscape:cy="18.017812"
   inkscape:window-width="3840"
   inkscape:window-height="2054"
   inkscape:window-x="-11"
   inkscape:window-y="-11"
   inkscape:window-maximized="1"
   inkscape:current-layer="g21"><sodipodi:guide
     position="0,30"
     orientation="0,30"
     inkscape:locked="true"
     id="guide21" /><sodipodi:guide
     position="30,30"
     orientation="30,0"
     inkscape:locked="true"
     id="guide22" /><sodipodi:guide
     position="30,0"
     orientation="0,-30"
     inkscape:locked="true"
     id="guide23" /><sodipodi:guide
     position="0,0"
     orientation="-30,0"
     inkscape:locked="true"
     id="guide24" /><inkscape:grid
     id="grid24"
     units="px"
     originx="0"
     originy="0"
     spacingx="1"
     spacingy="1"
     empcolor="#0099e5"
     empopacity="0.30196078"
     color="#0099e5"
     opacity="0.14901961"
     empspacing="5"
     dotted="false"
     gridanglex="30"
     gridanglez="30"
     visible="true" /><sodipodi:guide
     position="15.020674,19.224299"
     orientation="1,0"
     id="guide25"
     inkscape:locked="true" /></sodipodi:namedview>
<g
   id="g21"
   transform="matrix(0.8,0,0,0.8,2.8476562,3.5379163)"><path
     id="path17"
     style="fill:#ffffff"
     d="m 11.929688,11.519531 c -0.71,0 -1.239845,0.250235 -1.589844,0.740235 -0.3499999,0.499999 -0.5195315,1.16 -0.5195315,2 0,0.829999 0.1695316,1.490235 0.5195315,1.990234 0.349999,0.49 0.879844,0.740234 1.589844,0.740234 0.719999,0 1.249375,-0.250234 1.609374,-0.740234 0.35,-0.49 0.531016,-1.150235 0.541016,-1.990234 -0.01,-0.84 -0.191016,-1.500001 -0.541016,-2 -0.349999,-0.49 -0.889375,-0.740235 -1.609374,-0.740235 z m 0,1.259766 c 0.139999,0 0.250078,0.04109 0.330078,0.121094 0.08,0.08 0.139922,0.208906 0.169922,0.378906 0.03,0.18 0.05055,0.321172 0.06055,0.451172 0.01,0.13 0.0098,0.299531 0.0098,0.519531 0,0.23 2.34e-4,0.399531 -0.0098,0.519531 -0.01,0.12 -0.03055,0.271172 -0.06055,0.451172 -0.03,0.17 -0.08992,0.298906 -0.169922,0.378906 -0.08,0.08 -0.190079,0.121094 -0.330078,0.121094 -0.09,0 -0.160469,-0.02055 -0.230469,-0.06055 -0.07,-0.04 -0.118438,-0.09969 -0.148438,-0.179687 -0.04,-0.08 -0.06984,-0.170235 -0.08984,-0.240235 -0.02,-0.08 -0.04078,-0.190312 -0.05078,-0.320312 -0.01,-0.14 -0.01953,-0.250313 -0.01953,-0.320313 v -0.339843 -0.34961 c 0,-0.08 0.0095,-0.190078 0.01953,-0.330078 0.01,-0.14 0.02078,-0.250312 0.05078,-0.320312 0.03,-0.07 0.04984,-0.160235 0.08984,-0.240235 0.04,-0.08 0.08844,-0.149687 0.148438,-0.179687 0.07,-0.04 0.140469,-0.06055 0.230469,-0.06055 z M 11.98,22.01 h 1.32 l 4.99,-10.74 h -1.35 z m 6.449688,-5.720938 c -0.71,0 -1.24961,0.250235 -1.59961,0.740235 -0.36,0.489999 -0.540781,1.150235 -0.550781,1.990234 0.01,0.839999 0.200781,1.500001 0.550781,2 0.35,0.49 0.88961,0.740235 1.59961,0.740235 0.719999,0 1.249609,-0.250235 1.599609,-0.740235 0.35,-0.489999 0.52125,-1.160001 0.53125,-2 -0.01,-0.839999 -0.18125,-1.500235 -0.53125,-1.990234 -0.35,-0.49 -0.87961,-0.740234 -1.599609,-0.740235 z m -0.0098,1.261719 c 0.09,0 0.170234,0.01859 0.240234,0.05859 0.07,0.04 0.120157,0.101406 0.160156,0.191406 0.04,0.09 0.06961,0.168282 0.09961,0.238281 0.03,0.07 0.04078,0.180313 0.05078,0.320313 l 0.0098,0.320313 v 0.339843 0.34961 l -0.0098,0.320312 -0.05078,0.320313 L 18.820312,20.25 18.660156,20.439453 18.419922,20.5 c -0.14,0 -0.250078,-0.03914 -0.330078,-0.119141 -0.08,-0.08 -0.139922,-0.210859 -0.169922,-0.380859 -0.03,-0.18 -0.05055,-0.329219 -0.06055,-0.449219 -0.01,-0.12 -0.0098,-0.30125 -0.0098,-0.53125 0,-0.23 -2.34e-4,-0.399531 0.0098,-0.519531 0.01,-0.12 0.03055,-0.269219 0.06055,-0.449219 0.03,-0.18 0.08992,-0.300859 0.169922,-0.380859 0.08,-0.08 0.190078,-0.119141 0.330078,-0.119141 z M 5.9279334,17.033855 c 0,-1.1 0.3,-2.3625 0.8999998,-3.7875 0.5999999,-1.425 1.375,-2.8125 2.3250003,-4.1375004 1.9500015,-2.575 3.6500025,-4.525 5.0749925,-5.8375 l 0.9375,-0.9 c 0.3125,0.325 0.672269,0.6330586 0.996269,0.9618471 0.818007,0.8300987 1.341231,1.3256529 2.391231,2.5506529 1.05,1.225 1.9625,2.3125 2.7125,3.3125 0.887501,1.2625004 1.65,2.6250004 2.2625,4.0625004 0.6125,1.4375 0.925,2.7 0.925,3.7875 0,1.25 -0.2375,2.4375 -0.725,3.575 -0.4875,1.1375 -1.1375,2.125 -1.9625,2.95 -0.825,0.825 -1.8125,1.4875 -2.9625,1.975 -1.15,0.4875 -2.362499,0.7375 -3.637499,0.7375 -1.25,0 -2.437492,-0.2375 -3.574992,-0.7125 -1.137502,-0.475 -2.1250015,-1.1125 -2.9500018,-1.9375 -0.8250001,-0.8125 -1.4875,-1.8 -1.9750001,-2.9375 -0.4874999,-1.1375 -0.7374999,-2.3625 -0.7374997,-3.6625 z" /></g>
</svg>
