<svg width="30" height="30" viewBox="0 0 30 30" fill="none" xmlns="http://www.w3.org/2000/svg">
<path d="M21.9023 9.8391C22.2548 9.50083 22.6846 9.25329 23.1546 9.11792C23.6246 8.98254 24.1206 8.96341 24.5996 9.06218C25.0787 9.16094 25.5264 9.37464 25.904 9.68475C26.2816 9.99486 26.5776 10.392 26.7666 10.8419C26.9555 11.2918 27.0315 11.7808 26.9881 12.2665C26.9448 12.7523 26.7833 13.2202 26.5176 13.6297C26.252 14.0393 25.8902 14.3781 25.4637 14.6169C25.0371 14.8556 24.5585 14.9871 24.0695 15H3" stroke="#FFFFFF" stroke-width="1.5" stroke-linecap="round" stroke-linejoin="round"/>
<path d="M12.5 7.74975C12.7896 7.45438 13.148 7.23549 13.543 7.11269C13.938 6.9899 14.3573 6.96704 14.7633 7.04616C15.1693 7.12528 15.5494 7.30392 15.8694 7.56605C16.1894 7.82819 16.4393 8.16563 16.5968 8.54813C16.7543 8.93062 16.8144 9.34623 16.7718 9.75768C16.7292 10.1691 16.5851 10.5636 16.3525 10.9057C16.1199 11.2477 15.8061 11.5267 15.4392 11.7177C15.0722 11.9087 14.6636 12.0056 14.25 11.9998H3" stroke="#FFFFFF" stroke-width="1.5" stroke-linecap="round" stroke-linejoin="round"/>
<path d="M16.25 22.2502C16.5396 22.5456 16.898 22.7645 17.293 22.8873C17.688 23.0101 18.1073 23.033 18.5133 22.9538C18.9193 22.8747 19.2994 22.6961 19.6194 22.4339C19.9394 22.1718 20.1893 21.8344 20.3468 21.4519C20.5043 21.0694 20.5644 20.6538 20.5218 20.2423C20.4792 19.8309 20.3351 19.4364 20.1025 19.0943C19.8699 18.7523 19.5561 18.4733 19.1892 18.2823C18.8222 18.0914 18.4136 17.9944 18 18.0002H3" stroke="#FFFFFF" stroke-width="1.5" stroke-linecap="round" stroke-linejoin="round"/>
</svg>
